<svg xmlns="http://www.w3.org/2000/svg" viewBox="0 0 16 16" fill="#000000" id="Knife-Bold--Streamline-Phosphor" height="16" width="16">
  <desc>
    Knife Bold Streamline Icon: https://streamlinehq.com
  </desc>
  <path d="M15.21158125 1.60023125c-0.83999375 -0.83945625 -2.201325 -0.83945625 -3.041325 0L0.3983125 13.3775875c-0.4420375 0.4408875 -0.24104375 1.1949625 0.3618 1.35733125 0.00956875 0.00258125 0.01918125 0.00498125 0.0288375 0.00720625 0.8226625 0.19050625 1.664325 0.286875 2.50875625 0.2872375 2.2782875 0 4.5559 -0.7042375 6.69766875 -2.08635 2.18434375 -1.40981875 3.45764375 -3.02104375 3.5103625 -3.08863125 0.2523875 -0.323525 0.22336875 -0.7845875 -0.0675875 -1.073925l-1.18003125 -1.1854375 2.9534625 -2.9541375c0.83789375 -0.84038125 0.83789375 -2.20026875 0 -3.04065Zm-6.13874375 10.00663125c-2.08634375 1.335475 -4.2301375 1.93563125 -6.39285625 1.7828875l6.5368125 -6.53816875 1.31790625 1.31858125 1.21653125 1.21653125c-0.8014125 0.84384375 -1.70055 1.58915625 -2.67839375 2.22016875Zm4.991825 -8.11019375 -2.9554875 2.94940625 -0.7434375 -0.7434375 2.9534625 -2.9548125c0.3076 -0.2647 0.78639375 -0.09715 0.86183125 0.3015875 0.02981875 0.157625 -0.01375625 0.32025 -0.11839375 0.44184375Z" stroke-width="0.0625"></path>
</svg>